<svg width="370" height="141" viewBox="0 0 370 141" fill="none" xmlns="http://www.w3.org/2000/svg">
<rect width="370" height="141" rx="16" fill="#F2F2F2"/>
<path d="M64.7068 80.2441C61.6118 79.8944 58.8735 79.0483 56.4918 77.7057C54.1525 76.368 52.3747 74.6213 51.1584 72.4658C49.942 70.3103 49.4659 67.8734 49.7301 65.1552L59.2694 66.2331C59.1906 68.0705 59.6637 69.5839 60.6887 70.7731C61.756 71.9672 63.3072 72.6792 65.3423 72.9091C67.4197 73.1438 69.1071 72.8407 70.4044 71.9997C71.7065 71.1163 72.4485 69.869 72.6306 68.258C72.7791 66.9436 72.4984 65.817 71.7887 64.8781C71.079 63.9391 70.1357 63.167 68.9589 62.5617C67.8293 61.9188 66.238 61.1808 64.1853 60.3478C61.3981 59.1741 59.1385 58.0815 57.4064 57.07C55.7215 56.0208 54.3154 54.5953 53.1879 52.7933C52.1076 50.9537 51.7255 48.6348 52.0417 45.8366C52.3387 43.208 53.2545 40.9928 54.7892 39.1911C56.3238 37.3893 58.3358 36.1138 60.8249 35.3645C63.3189 34.5729 66.0922 34.3495 69.1448 34.6944C73.7237 35.2117 77.3064 36.7544 79.8931 39.3224C82.527 41.8528 83.7672 45.1274 83.6137 49.1462L73.82 48.0397C73.9077 46.5038 73.3919 45.1788 72.2725 44.0648C71.2004 42.9131 69.668 42.2247 67.6753 41.9996C65.937 41.8032 64.4877 42.0903 63.3271 42.8609C62.209 43.6362 61.5541 44.8718 61.3625 46.5677C61.2284 47.7548 61.4974 48.7943 62.1695 49.686C62.8889 50.5402 63.7921 51.2863 64.8794 51.9244C66.0138 52.5249 67.605 53.2629 69.653 54.1384C72.4402 55.3121 74.6974 56.4259 76.4246 57.4798C78.1519 58.5337 79.5769 59.9828 80.6996 61.8272C81.8223 63.6716 82.2279 65.9717 81.9166 68.7275C81.6483 71.1017 80.7845 73.2369 79.325 75.133C77.8656 77.0292 75.8793 78.4578 73.3661 79.4191C70.8578 80.338 67.9713 80.613 64.7068 80.2441ZM122.718 77.7816L105.038 75.7841L101.157 83.9117L91.8089 82.8554L112.794 40.2058L123.16 41.3771L134.1 87.6338L124.688 86.5703L122.718 77.7816ZM121.106 70.3859L116.781 51.0903L108.26 68.9344L121.106 70.3859ZM199.837 50.105L194.822 94.4946L185.919 93.4886L189.181 64.6163L174.026 92.1449L167.285 91.3833L158.591 61.1601L155.329 90.0324L146.426 89.0264L151.441 44.6369L161.553 45.7794L171.942 80.3805L189.789 48.9697L199.837 50.105ZM245.817 69.2121C245.549 71.5863 244.725 73.7475 243.346 75.6956C242.009 77.6485 240.06 79.1244 237.5 80.1232C234.982 81.1269 231.9 81.4227 228.254 81.0108L220.813 80.1701L218.887 97.2136L209.984 96.2077L214.999 51.8181L231.343 53.6648C234.778 54.0528 237.636 54.9769 239.918 56.437C242.201 57.8972 243.818 59.733 244.771 61.9446C245.766 64.161 246.114 66.5835 245.817 69.2121ZM228.684 73.7814C231.143 74.0592 233.028 73.714 234.34 72.7458C235.657 71.7353 236.43 70.2124 236.66 68.1774C237.148 63.8529 234.976 61.4176 230.143 60.8715L223.084 60.0739L221.625 72.9838L228.684 73.7814ZM264.736 95.2447L279.363 96.8973L278.565 103.956L255.035 101.298L260.05 56.9082L268.954 57.9142L264.736 95.2447ZM303.691 69.117L302.433 80.2462L317.378 81.9348L316.58 88.9939L301.635 87.3053L300.306 99.0704L317.159 100.975L316.34 108.224L290.584 105.314L295.606 60.8612L321.362 63.7713L320.543 71.0212L303.691 69.117Z" fill="#304854"/>
</svg>
